<svg width="24" height="24" viewBox="0 0 24 24" fill="none" xmlns="http://www.w3.org/2000/svg">
<path d="M4 5.15C4 4.31457 4.33187 3.51335 4.92261 2.92261C5.51335 2.33187 6.31457 2 7.15 2H15.85C16.6854 2 17.4866 2.33187 18.0774 2.92261C18.6681 3.51335 19 4.31457 19 5.15V20.75C18.9999 20.888 18.9616 21.0233 18.8895 21.141C18.8174 21.2587 18.7142 21.3543 18.5913 21.4171C18.4684 21.4799 18.3305 21.5076 18.1929 21.497C18.0553 21.4865 17.9232 21.4383 17.8113 21.3575L11.5 16.8013L5.18875 21.3575C5.0768 21.4383 4.94474 21.4865 4.80711 21.497C4.66948 21.5076 4.53162 21.4799 4.4087 21.4171C4.28579 21.3543 4.1826 21.2587 4.11049 21.141C4.03837 21.0233 4.00014 20.888 4 20.75V5.15ZM7.15 3.5C6.71239 3.5 6.29271 3.67384 5.98327 3.98327C5.67384 4.29271 5.5 4.71239 5.5 5.15V19.283L11.0612 15.2668C11.189 15.1746 11.3425 15.125 11.5 15.125C11.6575 15.125 11.811 15.1746 11.9387 15.2668L17.5 19.283V5.15C17.5 4.71239 17.3262 4.29271 17.0167 3.98327C16.7073 3.67384 16.2876 3.5 15.85 3.5H7.15Z" fill="black"/>
</svg>
