<svg width="35" height="35" viewBox="0 0 35 35" fill="none" xmlns="http://www.w3.org/2000/svg">
<circle cx="17.5" cy="17.5" r="17.5" fill="white" fill-opacity="0.5"/>
<path d="M13.94 8C13.1603 8 12.4125 8.30633 11.8611 8.85161C11.3097 9.39689 11 10.1364 11 10.9076V25.307C11.0001 25.4345 11.0358 25.5594 11.1031 25.668C11.1704 25.7766 11.2667 25.8648 11.3815 25.9228C11.4962 25.9808 11.6248 26.0063 11.7533 25.9966C11.8818 25.9869 12.005 25.9423 12.1095 25.8678L18 21.6622L23.8905 25.8692C23.9951 25.9438 24.1185 25.9884 24.247 25.998C24.3756 26.0077 24.5044 25.982 24.6192 25.9239C24.7339 25.8657 24.8302 25.7773 24.8974 25.6685C24.9646 25.5597 25.0001 25.4346 25 25.307V10.9076C25 10.1364 24.6903 9.39689 24.1389 8.85161C23.5875 8.30633 22.8397 8 22.06 8H13.94Z" fill="white"/>
</svg>
