<svg width="24" height="28" viewBox="0 0 24 28" fill="none" xmlns="http://www.w3.org/2000/svg">
<path d="M20.427 2.11878C19.1163 0.641687 16.7471 0.00842285 13.7162 0.00842285H4.91967C4.30016 0.00844553 3.77262 0.453831 3.67553 1.05881L0.0128007 24.0276C-0.0600023 24.4806 0.2947 24.8907 0.758984 24.8907H6.18968L7.55356 16.3371L7.51123 16.6049C7.60839 16.0003 8.13137 15.5543 8.75067 15.5543H11.3313C16.401 15.5543 20.3706 13.5183 21.5302 7.62851C21.5646 7.45432 21.5945 7.28477 21.6202 7.11913C21.4739 7.04249 21.4739 7.04249 21.6202 7.11913C21.9655 4.94219 21.6179 3.46036 20.427 2.11878Z" fill="#27346A"/>
<path d="M9.63155 6.33492C9.78001 6.26502 9.9424 6.2288 10.1068 6.2289H17.0032C17.8198 6.2289 18.5815 6.28144 19.2776 6.39221C19.4723 6.42292 19.6661 6.45958 19.8586 6.50214C20.1314 6.56166 20.401 6.63451 20.6666 6.72042C21.0087 6.83342 21.3274 6.96502 21.6203 7.11913C21.9655 4.94135 21.6179 3.46036 20.427 2.11878C19.1156 0.641687 16.7471 0.00842285 13.7162 0.00842285H4.91892C4.29953 0.00842285 3.7726 0.454283 3.67553 1.05881L0.0128012 24.0268C-0.0600018 24.4805 0.294701 24.8901 0.758233 24.8901H6.18968L9.0193 7.14777C9.07578 6.79376 9.3047 6.48984 9.63155 6.33492Z" fill="#27346A"/>
<path d="M21.5302 7.62852C20.3706 13.5176 16.4011 15.5544 11.3313 15.5544H8.74988C8.13059 15.5544 7.60752 16.0004 7.51129 16.605L5.81453 27.2405C5.75113 27.6369 6.06116 27.996 6.46675 27.996H11.0447C11.5865 27.9959 12.0477 27.6062 12.1323 27.0772L12.1769 26.8465L13.0397 21.4396L13.0953 21.1408C13.18 20.6118 13.6411 20.2221 14.1829 20.2219H14.868C19.3027 20.2219 22.7751 18.4405 23.7898 13.2885C24.2134 11.1355 23.9942 9.33784 22.8738 8.07522C22.5339 7.69279 22.1119 7.37695 21.6202 7.11914C21.5936 7.28562 21.5647 7.45432 21.5302 7.62852Z" fill="#2790C3"/>
<path d="M20.4067 6.64068C20.2259 6.58847 20.0433 6.54226 19.8594 6.5021C19.6668 6.46023 19.4731 6.42382 19.2784 6.39291C18.5816 6.2814 17.8205 6.22876 17.0031 6.22876H10.1076C9.943 6.22839 9.7805 6.26493 9.63228 6.33562C9.30503 6.49008 9.07591 6.79423 9.01994 7.14848L7.55429 16.3371L7.51196 16.6049C7.60837 16.0003 8.13135 15.5543 8.75074 15.5543H11.3322C16.4018 15.5543 20.3714 13.5183 21.531 7.62847C21.5655 7.45427 21.5945 7.28547 21.6211 7.11909C21.3274 6.96582 21.0096 6.83338 20.6673 6.72113C20.5809 6.69281 20.494 6.66599 20.4067 6.64068Z" fill="#1F264F"/>
</svg>
