<svg width="24" height="24" viewBox="0 0 24 25" fill="none" xmlns="http://www.w3.org/2000/svg">
<path d="M14.7321 2.41367C14.7595 2.38182 14.7936 2.35546 14.8323 2.33618C14.871 2.31689 14.9136 2.3051 14.9574 2.30151C15.0012 2.29792 15.0453 2.3026 15.0871 2.31528C15.1289 2.32796 15.1674 2.34837 15.2004 2.37527L16.3952 3.34968L12.6344 7.69975H15.1265L17.8586 4.5413L20.0017 6.28973C20.0651 6.34153 20.1041 6.41417 20.1104 6.49218C20.1167 6.57019 20.0898 6.6474 20.0355 6.70733L19.1403 7.69975H21.6623C21.9747 7.27671 22.1091 6.76264 22.0403 6.2543C21.9715 5.74596 21.7042 5.27843 21.2886 4.9397L16.4886 1.02405C16.2571 0.835407 15.9864 0.692411 15.6931 0.603791C15.3998 0.515171 15.09 0.482787 14.7827 0.508618C14.4754 0.534448 14.1771 0.617951 13.9058 0.754026C13.6346 0.8901 13.3962 1.07589 13.2052 1.30005L7.75265 7.69975H10.2305L14.7321 2.41367ZM2.91892 7.09974C2.66087 7.09974 2.41339 7.19456 2.23092 7.36335C2.04845 7.53213 1.94595 7.76105 1.94595 7.99975C1.94595 8.23845 2.04845 8.46737 2.23092 8.63616C2.41339 8.80494 2.66087 8.89977 2.91892 8.89977H19.7838C20.902 8.89977 21.9744 9.31066 22.7651 10.0421C23.5558 10.7735 24 11.7655 24 12.7998V20.5999C24 21.6343 23.5558 22.6263 22.7651 23.3577C21.9744 24.0891 20.902 24.5 19.7838 24.5H4.21622C3.09801 24.5 2.02559 24.0891 1.2349 23.3577C0.444207 22.6263 0 21.6343 0 20.5999V7.99975C0 7.28366 0.307528 6.59689 0.854931 6.09053C1.40233 5.58418 2.14477 5.29971 2.91892 5.29971H8.52324L6.97686 7.09974H2.91892ZM16.2162 16.9999C16.2162 17.4967 16.6521 17.8999 17.1892 17.8999H19.7838C20.0418 17.8999 20.2893 17.8051 20.4718 17.6363C20.6542 17.4675 20.7568 17.2386 20.7568 16.9999C20.7568 16.7612 20.6542 16.5323 20.4718 16.3635C20.2893 16.1947 20.0418 16.0999 19.7838 16.0999H17.1892C16.9311 16.0999 16.6837 16.1947 16.5012 16.3635C16.3187 16.5323 16.2162 16.7612 16.2162 16.9999Z" fill="#FF617D"/>
</svg>
