<svg width="40" height="30" viewBox="0 0 88 30" fill="none" xmlns="http://www.w3.org/2000/svg">
<path d="M38.0856 28.9282H30.9482L35.409 0.890282H42.5472L38.0856 28.9282ZM24.9436 0.890282L18.139 20.175L17.3338 16.0223L14.9329 3.41477C14.9329 3.41477 14.6425 0.890282 11.5471 0.890282H0.297772L0.165771 1.36503C0.165771 1.36503 3.60584 2.09703 7.63184 4.56977L13.8329 28.929H21.2696L32.6252 0.890282H24.9436ZM81.084 28.9282H87.6378L81.9236 0.889532H76.186C73.5364 0.889532 72.8912 2.97903 72.8912 2.97903L62.246 28.9282H69.6864L71.1744 24.7636H80.248L81.084 28.9282ZM73.23 19.0103L76.9802 8.51777L79.09 19.0103H73.23ZM62.8042 7.63279L63.8228 1.61178C63.8228 1.61178 60.6796 0.389282 57.4032 0.389282C53.8612 0.389282 45.4498 1.97253 45.4498 9.67129C45.4498 16.9148 55.322 17.0048 55.322 20.8094C55.322 24.6142 46.467 23.9326 43.5446 21.5332L42.4834 27.8288C42.4834 27.8288 45.6706 29.412 50.5398 29.412C55.4106 29.412 62.7586 26.8328 62.7586 19.8128C62.7586 12.5228 52.7978 11.844 52.7978 8.67453C52.7986 5.50429 59.7498 5.91153 62.8042 7.63279Z" fill="#2566AF"/>
</svg>
